<?xml version="1.0" encoding="utf-8" standalone="no"?>
<!DOCTYPE svg PUBLIC "-//W3C//DTD SVG 1.1//EN"
  "http://www.w3.org/Graphics/SVG/1.1/DTD/svg11.dtd">
<svg xmlns:xlink="http://www.w3.org/1999/xlink" width="349.2pt" height="347.04pt" viewBox="0 0 349.2 347.04" xmlns="http://www.w3.org/2000/svg" version="1.1">
 <metadata>
  <rdf:RDF xmlns:dc="http://purl.org/dc/elements/1.1/" xmlns:cc="http://creativecommons.org/ns#" xmlns:rdf="http://www.w3.org/1999/02/22-rdf-syntax-ns#">
   <cc:Work>
    <dc:type rdf:resource="http://purl.org/dc/dcmitype/StillImage"/>
    <dc:date>2024-07-11T04:06:06.879396</dc:date>
    <dc:format>image/svg+xml</dc:format>
    <dc:creator>
     <cc:Agent>
      <dc:title>Matplotlib v3.6.3, https://matplotlib.org/</dc:title>
     </cc:Agent>
    </dc:creator>
   </cc:Work>
  </rdf:RDF>
 </metadata>
 <defs>
  <style type="text/css">*{stroke-linejoin: round; stroke-linecap: butt}</style>
 </defs>
 <g id="figure_1">
  <g id="patch_1">
   <path d="M 0 347.04 
L 349.2 347.04 
L 349.2 -0 
L 0 -0 
z
" style="fill: #ffffff"/>
  </g>
  <g id="axes_1">
   <g id="patch_2">
    <path d="M 174.6 306.576 
C 210.115999 306.576 244.182136 292.55638 269.29574 267.6048 
C 294.409344 242.653219 308.52 208.806864 308.52 173.52 
C 308.52 138.233136 294.409344 104.386781 269.29574 79.4352 
C 244.182136 54.48362 210.115999 40.464 174.6 40.464 
C 139.084001 40.464 105.017864 54.48362 79.90426 79.4352 
C 54.790656 104.386781 40.68 138.233136 40.68 173.52 
C 40.68 208.806864 54.790656 242.653219 79.90426 267.6048 
C 105.017864 292.55638 139.084001 306.576 174.6 306.576 
z
" clip-path="url(#p2ed7fa613c)" style="fill: #3498db; stroke: #000000; stroke-width: 2; stroke-linejoin: miter"/>
   </g>
   <g id="text_1">
    <!-- Pro -->
    <g style="fill: #ffffff" transform="translate(143.85625 183.13875) scale(0.4 -0.4)">
     <defs>
      <path id="LiberationSerif-Bold-50" d="M 2722 2950 
Q 2722 3450 2536 3648 
Q 2350 3847 1881 3847 
L 1634 3847 
L 1634 1988 
L 1894 1988 
Q 2328 1988 2525 2206 
Q 2722 2425 2722 2950 
z
M 1634 1644 
L 1634 313 
L 2331 228 
L 2331 0 
L 150 0 
L 150 228 
L 647 313 
L 647 3881 
L 109 3963 
L 109 4191 
L 1956 4191 
Q 2847 4191 3287 3892 
Q 3728 3594 3728 2956 
Q 3728 1644 2197 1644 
L 1634 1644 
z
" transform="scale(0.015625)"/>
      <path id="LiberationSerif-Bold-72" d="M 1441 2328 
Q 1778 2703 2045 2867 
Q 2313 3031 2534 3031 
L 2703 3031 
L 2703 1959 
L 2528 1959 
L 2344 2353 
Q 2147 2353 1897 2267 
Q 1647 2181 1456 2066 
L 1456 281 
L 1928 206 
L 1928 0 
L 172 0 
L 172 206 
L 553 281 
L 553 2656 
L 172 2731 
L 172 2938 
L 1406 2938 
L 1441 2328 
z
" transform="scale(0.015625)"/>
      <path id="LiberationSerif-Bold-6f" d="M 2956 1484 
Q 2956 694 2617 315 
Q 2278 -63 1581 -63 
Q 906 -63 575 320 
Q 244 703 244 1484 
Q 244 2263 580 2639 
Q 916 3016 1606 3016 
Q 2303 3016 2629 2627 
Q 2956 2238 2956 1484 
z
M 2041 1484 
Q 2041 2172 1939 2436 
Q 1838 2700 1588 2700 
Q 1347 2700 1253 2447 
Q 1159 2194 1159 1484 
Q 1159 763 1254 506 
Q 1350 250 1588 250 
Q 1834 250 1937 520 
Q 2041 791 2041 1484 
z
" transform="scale(0.015625)"/>
     </defs>
     <use xlink:href="#LiberationSerif-Bold-50"/>
     <use xlink:href="#LiberationSerif-Bold-72" x="61.083984"/>
     <use xlink:href="#LiberationSerif-Bold-6f" x="103.71875"/>
    </g>
   </g>
  </g>
 </g>
 <defs>
  <clipPath id="p2ed7fa613c">
   <rect x="7.2" y="7.2" width="334.8" height="332.64"/>
  </clipPath>
 </defs>
</svg>
